<svg data-v-423bf9ae="" xmlns="http://www.w3.org/2000/svg" viewBox="0 0 420 107" class="iconLeftSlogan"><!----><!----><!----><g data-v-423bf9ae="" id="b2e60d69-712d-46fd-a899-1c5dce65f059" fill="black" transform="matrix(4.2583394050598145,0,0,4.2583394050598145,103.1080551147461,-9.79417896270752)"><path d="M8.32 13.55L7.55 11.65L3.40 11.65L2.63 13.55L-0.20 13.55L4.13 3.75L6.86 3.75L11.20 13.55L8.32 13.55ZM4.21 9.60L6.73 9.60L5.47 6.47L4.21 9.60ZM16.80 5.84L16.80 5.84Q18.21 5.84 19.07 6.68L19.07 6.68L19.07 6.68Q19.94 7.52 19.94 9.21L19.94 9.21L19.94 13.55L17.28 13.55L17.28 9.65L17.28 9.65Q17.28 8.09 16.03 8.09L16.03 8.09L16.03 8.09Q15.34 8.09 14.93 8.54L14.93 8.54L14.93 8.54Q14.52 8.99 14.52 9.88L14.52 9.88L14.52 13.55L11.86 13.55L11.86 5.96L14.39 5.96L14.39 6.79L14.39 6.79Q14.84 6.33 15.46 6.08L15.46 6.08L15.46 6.08Q16.07 5.84 16.80 5.84L16.80 5.84ZM27.23 5.96L29.76 5.96L29.76 12.17L29.76 12.17Q29.76 14.28 28.62 15.34L28.62 15.34L28.62 15.34Q27.47 16.39 25.31 16.39L25.31 16.39L25.31 16.39Q24.19 16.39 23.21 16.14L23.21 16.14L23.21 16.14Q22.23 15.89 21.55 15.40L21.55 15.40L22.51 13.54L22.51 13.54Q22.97 13.92 23.68 14.13L23.68 14.13L23.68 14.13Q24.39 14.35 25.07 14.35L25.07 14.35L25.07 14.35Q26.12 14.35 26.61 13.89L26.61 13.89L26.61 13.89Q27.10 13.43 27.10 12.52L27.10 12.52L27.10 12.26L27.10 12.26Q26.33 13.16 24.85 13.16L24.85 13.16L24.85 13.16Q23.84 13.16 22.99 12.71L22.99 12.71L22.99 12.71Q22.13 12.25 21.63 11.42L21.63 11.42L21.63 11.42Q21.13 10.58 21.13 9.49L21.13 9.49L21.13 9.49Q21.13 8.41 21.63 7.58L21.63 7.58L21.63 7.58Q22.13 6.75 22.99 6.29L22.99 6.29L22.99 6.29Q23.84 5.84 24.85 5.84L24.85 5.84L24.85 5.84Q26.47 5.84 27.23 6.89L27.23 6.89L27.23 5.96ZM25.48 11.05L25.48 11.05Q26.19 11.05 26.66 10.61L26.66 10.61L26.66 10.61Q27.13 10.18 27.13 9.49L27.13 9.49L27.13 9.49Q27.13 8.81 26.67 8.38L26.67 8.38L26.67 8.38Q26.21 7.95 25.48 7.95L25.48 7.95L25.48 7.95Q24.75 7.95 24.28 8.38L24.28 8.38L24.28 8.38Q23.81 8.81 23.81 9.49L23.81 9.49L23.81 9.49Q23.81 10.18 24.29 10.61L24.29 10.61L24.29 10.61Q24.77 11.05 25.48 11.05L25.48 11.05ZM39.23 9.77L39.23 9.77Q39.23 9.80 39.19 10.43L39.19 10.43L33.67 10.43L33.67 10.43Q33.84 11.02 34.32 11.33L34.32 11.33L34.32 11.33Q34.80 11.65 35.53 11.65L35.53 11.65L35.53 11.65Q36.08 11.65 36.48 11.49L36.48 11.49L36.48 11.49Q36.88 11.34 37.28 10.99L37.28 10.99L38.68 12.45L38.68 12.45Q37.58 13.68 35.45 13.68L35.45 13.68L35.45 13.68Q34.12 13.68 33.11 13.17L33.11 13.17L33.11 13.17Q32.10 12.67 31.55 11.77L31.55 11.77L31.55 11.77Q31.00 10.88 31.00 9.74L31.00 9.74L31.00 9.74Q31.00 8.62 31.54 7.73L31.54 7.73L31.54 7.73Q32.07 6.85 33.03 6.34L33.03 6.34L33.03 6.34Q33.98 5.84 35.17 5.84L35.17 5.84L35.17 5.84Q36.30 5.84 37.23 6.31L37.23 6.31L37.23 6.31Q38.15 6.78 38.69 7.66L38.69 7.66L38.69 7.66Q39.23 8.55 39.23 9.77L39.23 9.77ZM35.18 7.73L35.18 7.73Q34.57 7.73 34.15 8.08L34.15 8.08L34.15 8.08Q33.74 8.43 33.63 9.03L33.63 9.03L36.74 9.03L36.74 9.03Q36.62 8.43 36.21 8.08L36.21 8.08L36.21 8.08Q35.80 7.73 35.18 7.73L35.18 7.73ZM40.46 13.55L40.46 3.16L43.12 3.16L43.12 13.55L40.46 13.55ZM47.60 13.68L47.60 13.68Q46.65 13.68 45.72 13.46L45.72 13.46L45.72 13.46Q44.80 13.24 44.24 12.89L44.24 12.89L45.04 11.07L45.04 11.07Q45.56 11.40 46.27 11.58L46.27 11.58L46.27 11.58Q46.98 11.77 47.68 11.77L47.68 11.77L47.68 11.77Q48.33 11.77 48.60 11.64L48.60 11.64L48.60 11.64Q48.87 11.51 48.87 11.26L48.87 11.26L48.87 11.26Q48.87 11.00 48.54 10.90L48.54 10.90L48.54 10.90Q48.22 10.79 47.50 10.70L47.50 10.70L47.50 10.70Q46.59 10.58 45.95 10.40L45.95 10.40L45.95 10.40Q45.32 10.22 44.86 9.73L44.86 9.73L44.86 9.73Q44.39 9.24 44.39 8.36L44.39 8.36L44.39 8.36Q44.39 7.63 44.83 7.06L44.83 7.06L44.83 7.06Q45.26 6.50 46.09 6.17L46.09 6.17L46.09 6.17Q46.93 5.84 48.09 5.84L48.09 5.84L48.09 5.84Q48.92 5.84 49.73 6.01L49.73 6.01L49.73 6.01Q50.54 6.17 51.09 6.48L51.09 6.48L50.29 8.29L50.29 8.29Q49.28 7.73 48.10 7.73L48.10 7.73L48.10 7.73Q47.47 7.73 47.18 7.87L47.18 7.87L47.18 7.87Q46.89 8.02 46.89 8.26L46.89 8.26L46.89 8.26Q46.89 8.53 47.21 8.63L47.21 8.63L47.21 8.63Q47.53 8.74 48.27 8.85L48.27 8.85L48.27 8.85Q49.21 8.99 49.83 9.17L49.83 9.17L49.83 9.17Q50.44 9.35 50.90 9.83L50.90 9.83L50.90 9.83Q51.35 10.32 51.35 11.19L51.35 11.19L51.35 11.19Q51.35 11.90 50.92 12.47L50.92 12.47L50.92 12.47Q50.48 13.03 49.64 13.36L49.64 13.36L49.64 13.36Q48.79 13.68 47.60 13.68L47.60 13.68ZM57.27 5.84L57.27 5.84Q58.31 5.84 59.16 6.32L59.16 6.32L59.16 6.32Q60.00 6.80 60.50 7.69L60.50 7.69L60.50 7.69Q61.00 8.58 61.00 9.76L61.00 9.76L61.00 9.76Q61.00 10.93 60.50 11.82L60.50 11.82L60.50 11.82Q60.00 12.71 59.16 13.20L59.16 13.20L59.16 13.20Q58.31 13.68 57.27 13.68L57.27 13.68L57.27 13.68Q55.94 13.68 55.16 12.88L55.16 12.88L55.16 16.27L52.50 16.27L52.50 5.96L55.03 5.96L55.03 6.72L55.03 6.72Q55.78 5.84 57.27 5.84L57.27 5.84ZM56.71 11.56L56.71 11.56Q57.41 11.56 57.86 11.08L57.86 11.08L57.86 11.08Q58.31 10.60 58.31 9.76L58.31 9.76L58.31 9.76Q58.31 8.92 57.86 8.43L57.86 8.43L57.86 8.43Q57.41 7.95 56.71 7.95L56.71 7.95L56.71 7.95Q56.01 7.95 55.57 8.43L55.57 8.43L55.57 8.43Q55.12 8.92 55.12 9.76L55.12 9.76L55.12 9.76Q55.12 10.60 55.57 11.08L55.57 11.08L55.57 11.08Q56.01 11.56 56.71 11.56L56.71 11.56ZM62.23 13.55L62.23 5.96L64.89 5.96L64.89 13.55L62.23 13.55ZM63.56 5.12L63.56 5.12Q62.83 5.12 62.38 4.72L62.38 4.72L62.38 4.72Q61.94 4.31 61.94 3.71L61.94 3.71L61.94 3.71Q61.94 3.11 62.38 2.70L62.38 2.70L62.38 2.70Q62.83 2.30 63.56 2.30L63.56 2.30L63.56 2.30Q64.29 2.30 64.74 2.68L64.74 2.68L64.74 2.68Q65.18 3.07 65.18 3.67L65.18 3.67L65.18 3.67Q65.18 4.30 64.74 4.71L64.74 4.71L64.74 4.71Q64.29 5.12 63.56 5.12L63.56 5.12ZM74.37 9.77L74.37 9.77Q74.37 9.80 74.33 10.43L74.33 10.43L68.81 10.43L68.81 10.43Q68.98 11.02 69.46 11.33L69.46 11.33L69.46 11.33Q69.94 11.65 70.67 11.65L70.67 11.65L70.67 11.65Q71.22 11.65 71.62 11.49L71.62 11.49L71.62 11.49Q72.02 11.34 72.42 10.99L72.42 10.99L73.82 12.45L73.82 12.45Q72.72 13.68 70.59 13.68L70.59 13.68L70.59 13.68Q69.26 13.68 68.25 13.17L68.25 13.17L68.25 13.17Q67.24 12.67 66.69 11.77L66.69 11.77L66.69 11.77Q66.14 10.88 66.14 9.74L66.14 9.74L66.14 9.74Q66.14 8.62 66.67 7.73L66.67 7.73L66.67 7.73Q67.21 6.85 68.17 6.34L68.17 6.34L68.17 6.34Q69.12 5.84 70.31 5.84L70.31 5.84L70.31 5.84Q71.44 5.84 72.37 6.31L72.37 6.31L72.37 6.31Q73.29 6.78 73.83 7.66L73.83 7.66L73.83 7.66Q74.37 8.55 74.37 9.77L74.37 9.77ZM70.32 7.73L70.32 7.73Q69.71 7.73 69.29 8.08L69.29 8.08L69.29 8.08Q68.88 8.43 68.77 9.03L68.77 9.03L71.88 9.03L71.88 9.03Q71.76 8.43 71.35 8.08L71.35 8.08L71.35 8.08Q70.94 7.73 70.32 7.73L70.32 7.73Z"></path></g><!----><g data-v-423bf9ae="" id="f400c454-b98f-4814-913a-c6fac5c7b8aa" transform="matrix(1.0868111848831177,0,0,1.0868111848831177,-13.255263328552246,-0.23894432187080383)" stroke="none" fill="black"><g clip-rule="evenodd"><path d="M12.983 10.59l17.018 88.223-5.872-59.049 29.021-1.892-.054-9.883L64.549 1 53.622 18.977z"></path><path d="M59.389 54.548l5.16-53.541-8.74 39.716-19.612 1.045 1.57 20.462-7.766 36.583 12.057-39.899z"></path><path d="M62.8 67.182l.549-10.453-15.979 3.755-.032 11.797-17.337 26.532 21.68-27.616zM65.711 62.394l14.841-4.731 1.509-12.532-15.899 2.095zM72.07 44.502l10.988-1.417 1.581-10.278-8.079-.373L64.549 1l8.43 30.967z"></path><path d="M87.413 31.294l1.256-9.506-9.544-2.694L64.549 1l14.483 22.437-.422 7z"></path></g></g><!----><g data-v-423bf9ae="" id="84875197-cf47-4b5d-ab03-1ddf05f9afa9" fill="black" transform="matrix(0.8293952941894531,0,0,0.8293952941894531,101.99928283691406,56.98100280761719)"><path d="M7.76 3.78L7.76 4.42L4.38 4.42L4.38 13.02L3.68 13.02L3.68 4.42L0.31 4.42L0.31 3.78L7.76 3.78ZM19.70 3.64L19.70 3.64Q21 3.64 21.96 4.22L21.96 4.22L21.96 4.22Q22.92 4.80 23.44 5.87L23.44 5.87L23.44 5.87Q23.95 6.94 23.95 8.40L23.95 8.40L23.95 8.40Q23.95 9.86 23.44 10.93L23.44 10.93L23.44 10.93Q22.92 12.00 21.96 12.58L21.96 12.58L21.96 12.58Q21 13.16 19.70 13.16L19.70 13.16L19.70 13.16Q18.40 13.16 17.44 12.58L17.44 12.58L17.44 12.58Q16.48 12.00 15.96 10.93L15.96 10.93L15.96 10.93Q15.44 9.86 15.44 8.40L15.44 8.40L15.44 8.40Q15.44 6.94 15.96 5.87L15.96 5.87L15.96 5.87Q16.48 4.80 17.44 4.22L17.44 4.22L17.44 4.22Q18.40 3.64 19.70 3.64L19.70 3.64ZM19.70 4.28L19.70 4.28Q18.62 4.28 17.83 4.78L17.83 4.78L17.83 4.78Q17.04 5.28 16.61 6.21L16.61 6.21L16.61 6.21Q16.18 7.14 16.18 8.40L16.18 8.40L16.18 8.40Q16.18 9.66 16.61 10.59L16.61 10.59L16.61 10.59Q17.04 11.52 17.83 12.02L17.83 12.02L17.83 12.02Q18.62 12.52 19.70 12.52L19.70 12.52L19.70 12.52Q20.78 12.52 21.57 12.02L21.57 12.02L21.57 12.02Q22.37 11.52 22.80 10.59L22.80 10.59L22.80 10.59Q23.23 9.66 23.23 8.40L23.23 8.40L23.23 8.40Q23.23 7.14 22.80 6.21L22.80 6.21L22.80 6.21Q22.37 5.28 21.57 4.78L21.57 4.78L21.57 4.78Q20.78 4.28 19.70 4.28L19.70 4.28ZM39.09 3.78L39.09 4.42L35.71 4.42L35.71 13.02L35.01 13.02L35.01 4.42L31.64 4.42L31.64 3.78L39.09 3.78ZM52.81 13.02L51.65 10.12L47.22 10.12L46.07 13.02L45.33 13.02L49.03 3.78L49.85 3.78L53.55 13.02L52.81 13.02ZM47.49 9.48L51.39 9.48L49.78 5.45L49.45 4.47L49.43 4.47L49.10 5.42L47.49 9.48ZM62.97 12.38L68.52 12.38L68.52 13.02L62.27 13.02L62.27 3.78L62.97 3.78L62.97 12.38ZM92.86 6.54L91 13.02L90.13 13.02L87.25 3.78L88.00 3.78L90.57 12.45L92.99 3.78L93.80 3.78L96.22 12.46L98.81 3.78L99.53 3.78L96.64 13.02L95.77 13.02L93.91 6.54L93.39 4.54L93.38 4.54L92.86 6.54ZM109.10 3.78L109.10 13.02L108.40 13.02L108.40 3.78L109.10 3.78ZM126.11 3.78L126.11 13.02L125.24 13.02L120.34 5.77L119.66 4.54L119.64 4.54L119.69 5.70L119.69 13.02L119.01 13.02L119.01 3.78L119.90 3.78L124.78 11.02L125.48 12.26L125.45 11.10L125.45 3.78L126.11 3.78ZM138.94 3.78L138.94 3.78Q141.15 3.78 142.34 4.95L142.34 4.95L142.34 4.95Q143.54 6.12 143.54 8.33L143.54 8.33L143.54 8.33Q143.54 10.60 142.34 11.81L142.34 11.81L142.34 11.81Q141.15 13.02 138.94 13.02L138.94 13.02L136.02 13.02L136.02 3.78L138.94 3.78ZM138.99 12.38L138.99 12.38Q140.84 12.38 141.83 11.33L141.83 11.33L141.83 11.33Q142.81 10.29 142.81 8.33L142.81 8.33L142.81 8.33Q142.81 6.45 141.83 5.44L141.83 5.44L141.83 5.44Q140.84 4.42 138.99 4.42L138.99 4.42L136.72 4.42L136.72 12.38L138.99 12.38ZM156.55 3.64L156.55 3.64Q157.85 3.64 158.81 4.22L158.81 4.22L158.81 4.22Q159.77 4.80 160.29 5.87L160.29 5.87L160.29 5.87Q160.80 6.94 160.80 8.40L160.80 8.40L160.80 8.40Q160.80 9.86 160.29 10.93L160.29 10.93L160.29 10.93Q159.77 12.00 158.81 12.58L158.81 12.58L158.81 12.58Q157.85 13.16 156.55 13.16L156.55 13.16L156.55 13.16Q155.25 13.16 154.29 12.58L154.29 12.58L154.29 12.58Q153.33 12.00 152.81 10.93L152.81 10.93L152.81 10.93Q152.29 9.86 152.29 8.40L152.29 8.40L152.29 8.40Q152.29 6.94 152.81 5.87L152.81 5.87L152.81 5.87Q153.33 4.80 154.29 4.22L154.29 4.22L154.29 4.22Q155.25 3.64 156.55 3.64L156.55 3.64ZM156.55 4.28L156.55 4.28Q155.47 4.28 154.68 4.78L154.68 4.78L154.68 4.78Q153.89 5.28 153.46 6.21L153.46 6.21L153.46 6.21Q153.03 7.14 153.03 8.40L153.03 8.40L153.03 8.40Q153.03 9.66 153.46 10.59L153.46 10.59L153.46 10.59Q153.89 11.52 154.68 12.02L154.68 12.02L154.68 12.02Q155.47 12.52 156.55 12.52L156.55 12.52L156.55 12.52Q157.63 12.52 158.42 12.02L158.42 12.02L158.42 12.02Q159.22 11.52 159.65 10.59L159.65 10.59L159.65 10.59Q160.08 9.66 160.08 8.40L160.08 8.40L160.08 8.40Q160.08 7.14 159.65 6.21L159.65 6.21L159.65 6.21Q159.22 5.28 158.42 4.78L158.42 4.78L158.42 4.78Q157.63 4.28 156.55 4.28L156.55 4.28ZM174.58 6.54L172.72 13.02L171.85 13.02L168.97 3.78L169.72 3.78L172.28 12.45L174.71 3.78L175.52 3.78L177.94 12.46L180.53 3.78L181.24 3.78L178.36 13.02L177.49 13.02L175.63 6.54L175.11 4.54L175.10 4.54L174.58 6.54ZM208.81 10.68L208.81 10.68Q208.42 11.86 207.44 12.51L207.44 12.51L207.44 12.51Q206.47 13.16 205.11 13.16L205.11 13.16L205.11 13.16Q203.85 13.16 202.90 12.58L202.90 12.58L202.90 12.58Q201.95 12.00 201.43 10.92L201.43 10.92L201.43 10.92Q200.91 9.84 200.91 8.40L200.91 8.40L200.91 8.40Q200.91 6.96 201.43 5.88L201.43 5.88L201.43 5.88Q201.95 4.80 202.90 4.22L202.90 4.22L202.90 4.22Q203.85 3.64 205.10 3.64L205.10 3.64L205.10 3.64Q207.87 3.64 208.68 5.92L208.68 5.92L208.00 6.24L208.00 6.24Q207.68 5.26 206.97 4.77L206.97 4.77L206.97 4.77Q206.26 4.28 205.14 4.28L205.14 4.28L205.14 4.28Q204.11 4.28 203.31 4.78L203.31 4.78L203.31 4.78Q202.52 5.28 202.09 6.21L202.09 6.21L202.09 6.21Q201.66 7.14 201.66 8.40L201.66 8.40L201.66 8.40Q201.66 9.66 202.08 10.59L202.08 10.59L202.08 10.59Q202.51 11.52 203.29 12.02L203.29 12.02L203.29 12.02Q204.06 12.52 205.11 12.52L205.11 12.52L205.11 12.52Q206.23 12.52 207.02 11.97L207.02 11.97L207.02 11.97Q207.80 11.42 208.11 10.42L208.11 10.42L208.81 10.68ZM221.54 3.64L221.54 3.64Q222.84 3.64 223.80 4.22L223.80 4.22L223.80 4.22Q224.76 4.80 225.27 5.87L225.27 5.87L225.27 5.87Q225.79 6.94 225.79 8.40L225.79 8.40L225.79 8.40Q225.79 9.86 225.27 10.93L225.27 10.93L225.27 10.93Q224.76 12.00 223.80 12.58L223.80 12.58L223.80 12.58Q222.84 13.16 221.54 13.16L221.54 13.16L221.54 13.16Q220.23 13.16 219.27 12.58L219.27 12.58L219.27 12.58Q218.32 12.00 217.80 10.93L217.80 10.93L217.80 10.93Q217.28 9.86 217.28 8.40L217.28 8.40L217.28 8.40Q217.28 6.94 217.80 5.87L217.80 5.87L217.80 5.87Q218.32 4.80 219.27 4.22L219.27 4.22L219.27 4.22Q220.23 3.64 221.54 3.64L221.54 3.64ZM221.54 4.28L221.54 4.28Q220.46 4.28 219.67 4.78L219.67 4.78L219.67 4.78Q218.88 5.28 218.45 6.21L218.45 6.21L218.45 6.21Q218.02 7.14 218.02 8.40L218.02 8.40L218.02 8.40Q218.02 9.66 218.45 10.59L218.45 10.59L218.45 10.59Q218.88 11.52 219.67 12.02L219.67 12.02L219.67 12.02Q220.46 12.52 221.54 12.52L221.54 12.52L221.54 12.52Q222.61 12.52 223.41 12.02L223.41 12.02L223.41 12.02Q224.21 11.52 224.64 10.59L224.64 10.59L224.64 10.59Q225.06 9.66 225.06 8.40L225.06 8.40L225.06 8.40Q225.06 7.14 224.64 6.21L224.64 6.21L224.64 6.21Q224.21 5.28 223.41 4.78L223.41 4.78L223.41 4.78Q222.61 4.28 221.54 4.28L221.54 4.28ZM242.21 3.78L242.21 13.02L241.35 13.02L236.45 5.77L235.76 4.54L235.75 4.54L235.79 5.70L235.79 13.02L235.12 13.02L235.12 3.78L236.00 3.78L240.88 11.02L241.58 12.26L241.56 11.10L241.56 3.78L242.21 3.78ZM258.43 3.78L258.43 4.42L255.05 4.42L255.05 13.02L254.35 13.02L254.35 4.42L250.98 4.42L250.98 3.78L258.43 3.78ZM274.13 13.02L273.31 13.02L270.66 9.02L270.62 9.02L267.89 9.02L267.89 13.02L267.19 13.02L267.19 3.78L270.62 3.78L270.62 3.78Q272.01 3.78 272.82 4.48L272.82 4.48L272.82 4.48Q273.64 5.18 273.64 6.40L273.64 6.40L273.64 6.40Q273.64 7.41 273.06 8.07L273.06 8.07L273.06 8.07Q272.47 8.74 271.45 8.93L271.45 8.93L274.13 13.02ZM267.89 4.42L267.89 8.36L270.61 8.36L270.61 8.36Q271.73 8.36 272.32 7.85L272.32 7.85L272.32 7.85Q272.92 7.35 272.92 6.40L272.92 6.40L272.92 6.40Q272.92 5.45 272.32 4.93L272.32 4.93L272.32 4.93Q271.73 4.42 270.61 4.42L270.61 4.42L267.89 4.42ZM286.78 3.64L286.78 3.64Q288.08 3.64 289.04 4.22L289.04 4.22L289.04 4.22Q290.00 4.80 290.51 5.87L290.51 5.87L290.51 5.87Q291.03 6.94 291.03 8.40L291.03 8.40L291.03 8.40Q291.03 9.86 290.51 10.93L290.51 10.93L290.51 10.93Q290.00 12.00 289.04 12.58L289.04 12.58L289.04 12.58Q288.08 13.16 286.78 13.16L286.78 13.16L286.78 13.16Q285.47 13.16 284.51 12.58L284.51 12.58L284.51 12.58Q283.56 12.00 283.04 10.93L283.04 10.93L283.04 10.93Q282.52 9.86 282.52 8.40L282.52 8.40L282.52 8.40Q282.52 6.94 283.04 5.87L283.04 5.87L283.04 5.87Q283.56 4.80 284.51 4.22L284.51 4.22L284.51 4.22Q285.47 3.64 286.78 3.64L286.78 3.64ZM286.78 4.28L286.78 4.28Q285.70 4.28 284.91 4.78L284.91 4.78L284.91 4.78Q284.12 5.28 283.69 6.21L283.69 6.21L283.69 6.21Q283.26 7.14 283.26 8.40L283.26 8.40L283.26 8.40Q283.26 9.66 283.69 10.59L283.69 10.59L283.69 10.59Q284.12 11.52 284.91 12.02L284.91 12.02L284.91 12.02Q285.70 12.52 286.78 12.52L286.78 12.52L286.78 12.52Q287.85 12.52 288.65 12.02L288.65 12.02L288.65 12.02Q289.45 11.52 289.88 10.59L289.88 10.59L289.88 10.59Q290.30 9.66 290.30 8.40L290.30 8.40L290.30 8.40Q290.30 7.14 289.88 6.21L289.88 6.21L289.88 6.21Q289.45 5.28 288.65 4.78L288.65 4.78L288.65 4.78Q287.85 4.28 286.78 4.28L286.78 4.28ZM301.06 12.38L306.60 12.38L306.60 13.02L300.36 13.02L300.36 3.78L301.06 3.78L301.06 12.38Z"></path></g></svg>