<svg data-v-fde0c5aa="" xmlns="http://www.w3.org/2000/svg" viewBox="0 0 300 300" class="font"><!----><defs data-v-fde0c5aa=""><!----></defs><rect data-v-fde0c5aa="" fill="#004A66" x="0" y="0" width="300px" height="300px" class="logo-background-square"></rect><defs data-v-fde0c5aa=""><!----></defs><g data-v-fde0c5aa="" id="209e5e03-b185-47fc-9cbd-5a9938932fb2" fill="#0EA7FF" transform="matrix(2.9502480030059814,0,0,2.9502480030059814,40.59004962901597,122.42993281743608)"><path d="M8.32 13.55L7.55 11.65L3.40 11.65L2.63 13.55L-0.20 13.55L4.13 3.75L6.86 3.75L11.20 13.55L8.32 13.55ZM4.21 9.60L6.73 9.60L5.47 6.47L4.21 9.60ZM16.80 5.84L16.80 5.84Q18.21 5.84 19.07 6.68L19.07 6.68L19.07 6.68Q19.94 7.52 19.94 9.21L19.94 9.21L19.94 13.55L17.28 13.55L17.28 9.65L17.28 9.65Q17.28 8.09 16.03 8.09L16.03 8.09L16.03 8.09Q15.34 8.09 14.93 8.54L14.93 8.54L14.93 8.54Q14.52 8.99 14.52 9.88L14.52 9.88L14.52 13.55L11.86 13.55L11.86 5.96L14.39 5.96L14.39 6.79L14.39 6.79Q14.84 6.33 15.46 6.08L15.46 6.08L15.46 6.08Q16.07 5.84 16.80 5.84L16.80 5.84ZM27.23 5.96L29.76 5.96L29.76 12.17L29.76 12.17Q29.76 14.28 28.62 15.34L28.62 15.34L28.62 15.34Q27.47 16.39 25.31 16.39L25.31 16.39L25.31 16.39Q24.19 16.39 23.21 16.14L23.21 16.14L23.21 16.14Q22.23 15.89 21.55 15.40L21.55 15.40L22.51 13.54L22.51 13.54Q22.97 13.92 23.68 14.13L23.68 14.13L23.68 14.13Q24.39 14.35 25.07 14.35L25.07 14.35L25.07 14.35Q26.12 14.35 26.61 13.89L26.61 13.89L26.61 13.89Q27.10 13.43 27.10 12.52L27.10 12.52L27.10 12.26L27.10 12.26Q26.33 13.16 24.85 13.16L24.85 13.16L24.85 13.16Q23.84 13.16 22.99 12.71L22.99 12.71L22.99 12.71Q22.13 12.25 21.63 11.42L21.63 11.42L21.63 11.42Q21.13 10.58 21.13 9.49L21.13 9.49L21.13 9.49Q21.13 8.41 21.63 7.58L21.63 7.58L21.63 7.58Q22.13 6.75 22.99 6.29L22.99 6.29L22.99 6.29Q23.84 5.84 24.85 5.84L24.85 5.84L24.85 5.84Q26.47 5.84 27.23 6.89L27.23 6.89L27.23 5.96ZM25.48 11.05L25.48 11.05Q26.19 11.05 26.66 10.61L26.66 10.61L26.66 10.61Q27.13 10.18 27.13 9.49L27.13 9.49L27.13 9.49Q27.13 8.81 26.67 8.38L26.67 8.38L26.67 8.38Q26.21 7.95 25.48 7.95L25.48 7.95L25.48 7.95Q24.75 7.95 24.28 8.38L24.28 8.38L24.28 8.38Q23.81 8.81 23.81 9.49L23.81 9.49L23.81 9.49Q23.81 10.18 24.29 10.61L24.29 10.61L24.29 10.61Q24.77 11.05 25.48 11.05L25.48 11.05ZM39.23 9.77L39.23 9.77Q39.23 9.80 39.19 10.43L39.19 10.43L33.67 10.43L33.67 10.43Q33.84 11.02 34.32 11.33L34.32 11.33L34.32 11.33Q34.80 11.65 35.53 11.65L35.53 11.65L35.53 11.65Q36.08 11.65 36.48 11.49L36.48 11.49L36.48 11.49Q36.88 11.34 37.28 10.99L37.28 10.99L38.68 12.45L38.68 12.45Q37.58 13.68 35.45 13.68L35.45 13.68L35.45 13.68Q34.12 13.68 33.11 13.17L33.11 13.17L33.11 13.17Q32.10 12.67 31.55 11.77L31.55 11.77L31.55 11.77Q31.00 10.88 31.00 9.74L31.00 9.74L31.00 9.74Q31.00 8.62 31.54 7.73L31.54 7.73L31.54 7.73Q32.07 6.85 33.03 6.34L33.03 6.34L33.03 6.34Q33.98 5.84 35.17 5.84L35.17 5.84L35.17 5.84Q36.30 5.84 37.23 6.31L37.23 6.31L37.23 6.31Q38.15 6.78 38.69 7.66L38.69 7.66L38.69 7.66Q39.23 8.55 39.23 9.77L39.23 9.77ZM35.18 7.73L35.18 7.73Q34.57 7.73 34.15 8.08L34.15 8.08L34.15 8.08Q33.74 8.43 33.63 9.03L33.63 9.03L36.74 9.03L36.74 9.03Q36.62 8.43 36.21 8.08L36.21 8.08L36.21 8.08Q35.80 7.73 35.18 7.73L35.18 7.73ZM40.46 13.55L40.46 3.16L43.12 3.16L43.12 13.55L40.46 13.55ZM47.60 13.68L47.60 13.68Q46.65 13.68 45.72 13.46L45.72 13.46L45.72 13.46Q44.80 13.24 44.24 12.89L44.24 12.89L45.04 11.07L45.04 11.07Q45.56 11.40 46.27 11.58L46.27 11.58L46.27 11.58Q46.98 11.77 47.68 11.77L47.68 11.77L47.68 11.77Q48.33 11.77 48.60 11.64L48.60 11.64L48.60 11.64Q48.87 11.51 48.87 11.26L48.87 11.26L48.87 11.26Q48.87 11.00 48.54 10.90L48.54 10.90L48.54 10.90Q48.22 10.79 47.50 10.70L47.50 10.70L47.50 10.70Q46.59 10.58 45.95 10.40L45.95 10.40L45.95 10.40Q45.32 10.22 44.86 9.73L44.86 9.73L44.86 9.73Q44.39 9.24 44.39 8.36L44.39 8.36L44.39 8.36Q44.39 7.63 44.83 7.06L44.83 7.06L44.83 7.06Q45.26 6.50 46.09 6.17L46.09 6.17L46.09 6.17Q46.93 5.84 48.09 5.84L48.09 5.84L48.09 5.84Q48.92 5.84 49.73 6.01L49.73 6.01L49.73 6.01Q50.54 6.17 51.09 6.48L51.09 6.48L50.29 8.29L50.29 8.29Q49.28 7.73 48.10 7.73L48.10 7.73L48.10 7.73Q47.47 7.73 47.18 7.87L47.18 7.87L47.18 7.87Q46.89 8.02 46.89 8.26L46.89 8.26L46.89 8.26Q46.89 8.53 47.21 8.63L47.21 8.63L47.21 8.63Q47.53 8.74 48.27 8.85L48.27 8.85L48.27 8.85Q49.21 8.99 49.83 9.17L49.83 9.17L49.83 9.17Q50.44 9.35 50.90 9.83L50.90 9.83L50.90 9.83Q51.35 10.32 51.35 11.19L51.35 11.19L51.35 11.19Q51.35 11.90 50.92 12.47L50.92 12.47L50.92 12.47Q50.48 13.03 49.64 13.36L49.64 13.36L49.64 13.36Q48.79 13.68 47.60 13.68L47.60 13.68ZM57.27 5.84L57.27 5.84Q58.31 5.84 59.16 6.32L59.16 6.32L59.16 6.32Q60.00 6.80 60.50 7.69L60.50 7.69L60.50 7.69Q61.00 8.58 61.00 9.76L61.00 9.76L61.00 9.76Q61.00 10.93 60.50 11.82L60.50 11.82L60.50 11.82Q60.00 12.71 59.16 13.20L59.16 13.20L59.16 13.20Q58.31 13.68 57.27 13.68L57.27 13.68L57.27 13.68Q55.94 13.68 55.16 12.88L55.16 12.88L55.16 16.27L52.50 16.27L52.50 5.96L55.03 5.96L55.03 6.72L55.03 6.72Q55.78 5.84 57.27 5.84L57.27 5.84ZM56.71 11.56L56.71 11.56Q57.41 11.56 57.86 11.08L57.86 11.08L57.86 11.08Q58.31 10.60 58.31 9.76L58.31 9.76L58.31 9.76Q58.31 8.92 57.86 8.43L57.86 8.43L57.86 8.43Q57.41 7.95 56.71 7.95L56.71 7.95L56.71 7.95Q56.01 7.95 55.57 8.43L55.57 8.43L55.57 8.43Q55.12 8.92 55.12 9.76L55.12 9.76L55.12 9.76Q55.12 10.60 55.57 11.08L55.57 11.08L55.57 11.08Q56.01 11.56 56.71 11.56L56.71 11.56ZM62.23 13.55L62.23 5.96L64.89 5.96L64.89 13.55L62.23 13.55ZM63.56 5.12L63.56 5.12Q62.83 5.12 62.38 4.72L62.38 4.72L62.38 4.72Q61.94 4.31 61.94 3.71L61.94 3.71L61.94 3.71Q61.94 3.11 62.38 2.70L62.38 2.70L62.38 2.70Q62.83 2.30 63.56 2.30L63.56 2.30L63.56 2.30Q64.29 2.30 64.74 2.68L64.74 2.68L64.74 2.68Q65.18 3.07 65.18 3.67L65.18 3.67L65.18 3.67Q65.18 4.30 64.74 4.71L64.74 4.71L64.74 4.71Q64.29 5.12 63.56 5.12L63.56 5.12ZM74.37 9.77L74.37 9.77Q74.37 9.80 74.33 10.43L74.33 10.43L68.81 10.43L68.81 10.43Q68.98 11.02 69.46 11.33L69.46 11.33L69.46 11.33Q69.94 11.65 70.67 11.65L70.67 11.65L70.67 11.65Q71.22 11.65 71.62 11.49L71.62 11.49L71.62 11.49Q72.02 11.34 72.42 10.99L72.42 10.99L73.82 12.45L73.82 12.45Q72.72 13.68 70.59 13.68L70.59 13.68L70.59 13.68Q69.26 13.68 68.25 13.17L68.25 13.17L68.25 13.17Q67.24 12.67 66.69 11.77L66.69 11.77L66.69 11.77Q66.14 10.88 66.14 9.74L66.14 9.74L66.14 9.74Q66.14 8.62 66.67 7.73L66.67 7.73L66.67 7.73Q67.21 6.85 68.17 6.34L68.17 6.34L68.17 6.34Q69.12 5.84 70.31 5.84L70.31 5.84L70.31 5.84Q71.44 5.84 72.37 6.31L72.37 6.31L72.37 6.31Q73.29 6.78 73.83 7.66L73.83 7.66L73.83 7.66Q74.37 8.55 74.37 9.77L74.37 9.77ZM70.32 7.73L70.32 7.73Q69.71 7.73 69.29 8.08L69.29 8.08L69.29 8.08Q68.88 8.43 68.77 9.03L68.77 9.03L71.88 9.03L71.88 9.03Q71.76 8.43 71.35 8.08L71.35 8.08L71.35 8.08Q70.94 7.73 70.32 7.73L70.32 7.73Z"></path></g><!----><!----></svg>